# xmcd
#
# Track frame offsets:
#	150
#	2102
#	14784
#	29790
#	45940
#	59439
#	73753
#	86210
#	102233
#	119326
#	131713
#	149597
#	171311
#	187398
#	203413
#	218874
#	252153
#	272127
#	292568
#
# Disc length: 4153 seconds
#
# Revision: 0
# Processed by: cddbd v1.5.2PL0 Copyright (c) Steve Scherf et al.
# Submitted via: SynApp - FreeCDDB Version: 2.6
#
DISCID=2a103713
DTITLE=BOSSHOSS - The Bosshoss
DYEAR=1990
DGENRE=Country
TTITLE0=Intro
TTITLE1=Rodeo Radio
TTITLE2=ring ring ring
TTITLE3=my favorite game
TTITLE4=i say a little prayer
TTITLE5=im on a high
TTITLE6=hell yeah
TTITLE7=hot stuff
TTITLE8=rodeo queen
TTITLE9=its not unusual
TTITLE10=shake a leg
TTITLE11=mary marry me
TTITLE12=jesus build my hotrod
TTITLE13=upside down
TTITLE14=ca plane pour moi
TTITLE15=youll never walk alone
TTITLE16=yeehaw live
TTITLE17=remedy live
TTITLE18=sabotage live
EXTD=
EXTT0=
EXTT1=
EXTT2=
EXTT3=
EXTT4=
EXTT5=
EXTT6=
EXTT7=
EXTT8=
EXTT9=
EXTT10=
EXTT11=
EXTT12=
EXTT13=
EXTT14=
EXTT15=
EXTT16=
EXTT17=
EXTT18=
PLAYORDER=
